# xmcd
#
# Track frame offsets:
# 150
# 4496
# 22538
# 32821
# 50791
# 71773
# 80178
# 106061
# 123752
# 140195
# 152343
# 162989
# 181187
# 215173
# 237336
#
# Disc length: 3675 seconds
#
# Revision: 0
# Processed by: cddbd v1.5PL3 Copyright (c) Steve Scherf et al.
# Submitted via: Audion 2.5.0 (http://www.panic.com/audion/)
#
DISCID=cc0e590f
DTITLE=Ben Kweller - Live
DYEAR=1900
DGENRE=
TTITLE0=Intro
TTITLE1=Commerce, TX
TTITLE2=How It Should Be
TTITLE3=Walk On Me
TTITLE4=Family Tree
TTITLE5=Launch Ramp
TTITLE6=Hospital Bed
TTITLE7=Ann Disaster
TTITLE8=On My Way
TTITLE9=BK Baby
TTITLE10=Tylenol
TTITLE11=Falling
TTITLE12=In Other Words
TTITLE13=Wasted and Ready
TTITLE14=No Reason
EXTD=
EXTT0=
EXTT1=
EXTT2=
EXTT3=
EXTT4=
EXTT5=
EXTT6=
EXTT7=
EXTT8=
EXTT9=
EXTT10=
EXTT11=
EXTT12=
EXTT13=
EXTT14=
PLAYORDER=
